<?xml version="1.0" standalone="no"?>
<!DOCTYPE svg PUBLIC "-//W3C//DTD SVG 20010904//EN"
 "http://www.w3.org/TR/2001/REC-SVG-20010904/DTD/svg10.dtd">
<svg version="1.0" xmlns="http://www.w3.org/2000/svg"
 width="512.000000pt" height="512.000000pt" viewBox="0 0 512.000000 512.000000"
 preserveAspectRatio="xMidYMid meet">
<metadata>
Created by potrace 1.14, written by Peter Selinger 2001-2017
</metadata>
<g transform="translate(0.000000,512.000000) scale(0.100000,-0.100000)"
fill="#000000" stroke="none">
<path d="M150 4905 l0 -75 -75 0 -75 0 0 -145 0 -145 75 0 75 0 0 -75 0 -75
75 0 75 0 0 -75 0 -75 70 0 70 0 0 -70 0 -70 75 0 75 0 0 -1755 0 -1755 -75 0
-75 0 0 -220 0 -220 293 0 c162 0 297 -3 300 -7 4 -3 2 -12 -5 -20 -8 -11 -7
-12 6 -7 10 4 15 13 12 21 -4 10 1 13 17 11 12 -2 25 -7 29 -13 5 -6 8 -6 8 2
0 6 13 11 30 11 16 -1 27 -5 24 -10 -3 -4 -1 -8 5 -8 5 0 12 6 14 13 3 6 5 0
4 -16 -1 -19 -7 -27 -20 -27 -10 0 -16 4 -12 9 3 6 -4 15 -15 21 -13 7 -20 7
-20 0 0 -5 7 -10 15 -10 8 0 14 -6 12 -12 -1 -7 8 -14 20 -16 19 -3 22 -9 20
-40 l-2 -37 218 -3 217 -2 0 69 0 70 77 3 77 3 -1 73 -2 72 75 -2 74 -3 0 73
c0 81 6 77 -102 73 l-47 -2 -1 1170 0 1171 75 0 75 0 0 -70 0 -70 70 0 70 0 0
-75 0 -75 75 0 75 0 0 -75 0 -75 75 0 75 0 0 -70 0 -70 70 0 70 0 0 -75 0 -75
75 0 75 0 0 -70 0 -70 70 0 70 0 0 -75 0 -75 75 0 75 0 0 -75 0 -75 74 0 74 0
0 -63 c0 -34 1 -99 1 -144 l1 -83 70 0 70 0 0 -75 0 -75 75 0 75 0 0 -70 0
-70 75 0 75 0 0 -75 0 -75 70 0 70 0 0 -70 0 -70 75 0 75 0 0 -75 0 -75 70 0
70 0 0 -75 0 -75 75 0 75 0 0 -70 0 -70 75 0 75 0 0 -75 0 -75 290 0 290 0 0
75 0 75 75 0 75 0 0 220 0 220 70 0 70 0 0 215 0 215 -70 0 -70 0 0 64 c0 70
-8 98 -40 136 -20 24 -21 25 -35 6 -8 -11 -15 -25 -14 -30 0 -6 5 -1 11 12 6
12 15 22 20 22 12 0 10 -14 -4 -28 -9 -9 -9 -12 0 -12 7 0 12 5 12 12 0 8 6 6
17 -5 14 -14 15 -19 4 -29 -8 -8 -11 -8 -8 -2 5 8 -2 11 -17 10 -13 0 -21 -5
-18 -11 3 -5 -1 -4 -10 3 -13 10 -17 10 -22 0 -3 -7 -4 -2 -2 12 5 23 4 23 -8
8 -7 -10 -19 -18 -27 -18 -11 0 -11 2 1 10 10 6 11 10 3 10 -7 0 -13 9 -13 21
0 11 5 17 10 14 6 -3 10 -1 10 4 0 6 -4 11 -10 11 -6 0 -10 394 -10 1106 0
880 3 1104 13 1098 9 -6 9 -4 0 7 -7 7 -13 24 -13 37 0 23 2 24 68 21 37 -2
72 -1 77 2 6 3 39 5 75 4 l65 0 3 217 3 218 -70 0 -71 0 0 365 0 365 -75 0
-75 0 0 75 0 75 -510 0 -510 0 0 -75 0 -75 -75 0 -75 0 0 -145 0 -145 75 0 75
0 0 -880 0 -880 -75 0 -75 0 0 75 0 75 -70 0 -70 0 0 70 0 70 -75 0 -75 0 0
75 0 75 -75 0 -75 0 0 75 0 75 -70 0 -70 0 0 70 0 70 -75 0 -75 0 0 75 0 75
-75 0 -75 0 0 75 0 75 -70 0 -70 0 0 70 0 70 -76 0 -75 0 1 48 c1 26 1 91 1
145 l-1 97 -70 0 -70 0 0 75 0 75 -75 0 -75 0 0 75 0 75 -75 0 -75 0 0 70 0
70 -70 0 -70 0 0 75 0 75 -75 0 -75 0 0 75 0 75 -805 0 -805 0 0 -75z m4860
-1108 c0 6 21 9 47 8 l48 -1 0 -63 c1 -34 -3 -65 -7 -67 -5 -3 -7 0 -6 7 2 6
-3 14 -10 16 -6 3 -10 -1 -9 -9 2 -7 2 -10 0 -5 -3 4 -10 4 -16 0 -18 -11 -38
-12 -31 -2 8 13 -10 11 -24 -3 -15 -15 -14 -17 -16 64 -2 54 1 65 11 56 8 -6
13 -6 13 -1z m-127 -2512 c-3 -9 -8 -14 -10 -11 -3 3 -2 9 2 15 9 16 15 13 8
-4z m-2 -58 c-10 -9 -11 -8 -5 6 3 10 9 15 12 12 3 -3 0 -11 -7 -18z m59 17
c0 -8 -19 -13 -24 -6 -3 5 1 9 9 9 8 0 15 -2 15 -3z"/>
<path d="M5019 3789 c-7 -4 -16 -6 -20 -4 -10 7 -5 -69 6 -77 6 -5 5 -8 -2 -8
-7 0 -13 -5 -13 -12 0 -6 8 -4 19 6 17 16 19 16 25 0 6 -16 8 -16 26 1 10 9
22 15 27 12 4 -3 8 16 8 41 0 46 0 47 -31 48 -18 1 -38 -2 -45 -7z m69 -14 c3
-3 0 -5 -6 -5 -7 0 -12 -5 -12 -11 0 -5 6 -7 13 -3 9 6 9 4 -1 -8 -7 -9 -9
-18 -3 -20 5 -1 -2 -12 -17 -22 -14 -11 -22 -14 -18 -8 6 11 -5 16 -26 14 -3
-1 -9 5 -12 13 -3 9 0 12 9 9 9 -4 12 1 10 13 -2 10 -4 20 -4 23 -1 3 -6 -2
-11 -10 -5 -8 -10 -10 -10 -4 0 16 11 24 24 17 6 -4 18 -8 26 -10 10 -1 9 3
-5 13 -19 14 -19 15 9 10 16 -3 31 -8 34 -11z"/>
<path d="M5039 3757 c-6 -18 -5 -37 2 -37 5 0 12 -1 16 -2 3 -2 7 5 9 14 1 9
-4 19 -12 22 -8 3 -14 4 -15 3z"/>
<path d="M2536 4058 c3 -5 10 -6 15 -3 13 9 11 12 -6 12 -8 0 -12 -4 -9 -9z"/>
<path d="M2574 4056 c1 -8 5 -18 8 -22 4 -3 5 1 4 10 -1 8 -5 18 -8 22 -4 3
-5 -1 -4 -10z"/>
<path d="M2595 3979 c-3 -4 2 -6 10 -5 21 3 28 13 10 13 -9 0 -18 -4 -20 -8z"/>
<path d="M4890 3646 c0 -2 7 -7 16 -10 8 -3 12 -2 9 4 -6 10 -25 14 -25 6z"/>
<path d="M4931 3634 c0 -11 3 -14 6 -6 3 7 2 16 -1 19 -3 4 -6 -2 -5 -13z"/>
<path d="M4892 3611 c-11 -7 -11 -9 0 -14 9 -3 15 1 15 9 0 8 -1 14 -1 14 -1
0 -7 -4 -14 -9z"/>
<path d="M4924 3599 c-3 -6 -1 -16 5 -22 9 -9 10 -7 5 7 -6 15 -4 17 6 11 9
-5 11 -4 6 3 -9 15 -13 15 -22 1z"/>
<path d="M4854 3542 c3 -5 1 -12 -6 -14 -8 -3 -9 -6 -1 -11 6 -4 13 0 17 8 3
8 0 17 -6 21 -6 4 -8 3 -4 -4z"/>
<path d="M4948 3532 c3 -10 1 -13 -6 -8 -6 3 -13 2 -16 -3 -4 -5 1 -8 10 -7
21 3 39 33 20 33 -8 0 -12 -7 -8 -15z"/>
<path d="M4865 1600 c-3 -6 1 -7 9 -4 18 7 21 14 7 14 -6 0 -13 -4 -16 -10z"/>
<path d="M3039 1513 c-13 -16 -12 -17 4 -4 16 13 21 21 13 21 -2 0 -10 -8 -17
-17z"/>
<path d="M4915 1470 c6 -10 4 -12 -11 -6 -15 6 -17 5 -6 -5 9 -9 15 -10 23 -2
8 8 7 13 -2 18 -8 6 -10 4 -4 -5z"/>
<path d="M4865 1450 c20 -22 8 -28 -15 -7 -12 10 -12 9 0 -6 7 -10 19 -16 26
-13 7 3 15 0 17 -7 2 -7 7 -10 10 -7 7 7 -36 60 -48 60 -5 0 0 -9 10 -20z"/>
<path d="M4926 1445 c-11 -8 -16 -15 -10 -15 5 0 18 7 28 15 11 8 16 15 10 15
-5 0 -18 -7 -28 -15z"/>
<path d="M4939 1419 c-19 -16 -20 -18 -4 -10 34 17 51 31 39 31 -7 0 -22 -9
-35 -21z"/>
<path d="M4866 1393 c3 -14 -1 -25 -13 -32 -10 -6 -13 -10 -8 -10 13 0 52 29
39 29 -5 0 -2 5 6 11 13 9 13 10 -2 6 -9 -3 -19 -1 -22 6 -3 7 -3 2 0 -10z"/>
<path d="M4948 1393 c6 -2 9 -10 6 -15 -4 -7 -2 -8 4 -4 18 11 14 26 -5 25
-11 0 -13 -3 -5 -6z"/>
<path d="M1774 578 c-7 -11 5 -28 19 -27 9 0 9 2 0 6 -7 2 -13 9 -13 14 0 6 4
8 9 4 5 -3 12 -2 15 3 3 5 -2 9 -10 9 -8 0 -17 -4 -20 -9z"/>
<path d="M1830 585 c0 -7 30 -13 34 -7 3 4 -4 9 -15 9 -10 1 -19 0 -19 -2z"/>
<path d="M1884 574 c-18 -14 -18 -15 4 -4 12 6 22 13 22 15 0 8 -5 6 -26 -11z"/>
<path d="M1814 553 c2 -9 8 -18 15 -19 6 -1 7 0 2 2 -6 3 -7 12 -4 20 3 8 1
14 -5 14 -6 0 -9 -8 -8 -17z"/>
<path d="M1855 541 c-3 -6 -3 -11 2 -12 4 0 -1 -5 -12 -10 l-20 -9 20 3 c11 2
19 9 18 15 -2 7 6 12 18 12 11 0 18 -4 14 -9 -3 -5 -1 -12 4 -15 5 -4 8 2 7
11 -3 20 -41 30 -51 14z"/>
<path d="M1788 523 c7 -3 16 -2 19 1 4 3 -2 6 -13 5 -11 0 -14 -3 -6 -6z"/>
<path d="M1775 502 c-9 -9 -6 -32 5 -32 5 0 7 6 4 13 -2 7 3 13 14 14 11 1 18
-6 19 -18 1 -11 -2 -17 -6 -15 -4 3 -13 0 -21 -5 -11 -7 -8 -8 10 -6 34 5 36
51 3 53 -12 1 -25 -1 -28 -4z"/>
<path d="M1870 500 c0 -5 5 -10 10 -10 6 0 10 5 10 10 0 6 -4 10 -10 10 -5 0
-10 -4 -10 -10z"/>
<path d="M1846 475 c4 -8 8 -15 10 -15 2 0 4 7 4 15 0 8 -4 15 -10 15 -5 0 -7
-7 -4 -15z"/>
<path d="M1899 483 c-1 -5 -1 -12 0 -17 1 -5 -5 -6 -14 -3 -8 4 -15 2 -15 -4
0 -18 33 -5 36 14 1 9 0 17 -2 17 -2 0 -5 -3 -5 -7z"/>
<path d="M1810 220 c0 -5 5 -10 11 -10 5 0 7 5 4 10 -3 6 -8 10 -11 10 -2 0
-4 -4 -4 -10z"/>
<path d="M1070 120 c0 -5 5 -10 11 -10 5 0 7 5 4 10 -3 6 -8 10 -11 10 -2 0
-4 -4 -4 -10z"/>
<path d="M1044 99 c-4 -8 -3 -9 4 -5 8 5 11 -1 9 -16 -1 -17 3 -22 22 -23 19
0 24 5 25 27 1 14 -2 24 -7 21 -5 -3 -7 -13 -4 -23 3 -14 -1 -18 -14 -17 -13
1 -17 7 -14 18 7 20 -10 35 -21 18z"/>
<path d="M1120 80 c8 -5 20 -10 25 -10 6 0 3 5 -5 10 -8 5 -19 10 -25 10 -5 0
-3 -5 5 -10z"/>
<path d="M1115 50 c-3 -5 -1 -10 4 -10 6 0 11 5 11 10 0 6 -2 10 -4 10 -3 0
-8 -4 -11 -10z"/>
<path d="M1151 44 c0 -11 3 -14 6 -6 3 7 2 16 -1 19 -3 4 -6 -2 -5 -13z"/>
<path d="M1039 48 c-6 -21 -5 -38 1 -38 5 0 8 9 7 20 -1 17 -5 26 -8 18z"/>
<path d="M1068 33 c7 -3 16 -2 19 1 4 3 -2 6 -13 5 -11 0 -14 -3 -6 -6z"/>
<path d="M1096 22 c-2 -4 9 -7 25 -7 31 -1 30 7 -1 12 -10 1 -21 -1 -24 -5z"/>
</g>
</svg>
